<?xml version="1.0" standalone="no"?>
<!DOCTYPE svg PUBLIC "-//W3C//DTD SVG 20010904//EN"
 "http://www.w3.org/TR/2001/REC-SVG-20010904/DTD/svg10.dtd">
<svg version="1.0" xmlns="http://www.w3.org/2000/svg"
 width="454.000000pt" height="454.000000pt" viewBox="0 0 454.000000 454.000000"
 preserveAspectRatio="xMidYMid meet">
<metadata>
Created by potrace 1.14, written by Peter Selinger 2001-2017
</metadata>
<g transform="translate(0.000000,454.000000) scale(0.100000,-0.100000)"
fill="#000000" stroke="none">
<path d="M4115 4423 c-113 -17 -212 -80 -292 -185 -138 -181 -212 -480 -185
-747 10 -95 17 -123 51 -194 40 -84 85 -135 150 -169 18 -10 41 -18 51 -18 10
0 22 -4 25 -10 3 -5 47 -10 97 -10 85 0 136 9 180 31 10 5 23 9 29 9 24 0 98
55 103 76 3 12 15 89 26 170 10 82 26 194 35 249 22 141 22 203 -1 220 -28 21
-316 21 -334 0 -7 -8 -17 -49 -23 -91 -15 -103 -11 -108 92 -112 l83 -3 -6
-37 c-3 -20 -10 -75 -16 -122 -17 -136 -8 -124 -109 -158 -76 -26 -190 44
-223 136 -20 58 -17 322 5 395 50 164 125 275 218 325 62 33 172 31 236 -4 26
-15 56 -35 67 -45 25 -24 55 -34 68 -21 15 15 27 81 28 148 0 54 -3 63 -29 86
-35 32 -56 43 -112 62 -48 16 -167 27 -214 19z"/>
<path d="M115 4408 c-11 -6 -23 -16 -28 -22 -8 -11 -3 -85 14 -215 5 -41 23
-230 39 -420 35 -399 56 -599 65 -623 6 -16 21 -18 110 -18 70 0 105 4 112 13
13 16 57 127 86 212 23 66 46 129 131 360 55 146 103 279 136 370 16 44 40
109 53 145 14 36 32 89 40 118 15 51 15 53 -5 72 -26 24 -83 26 -131 6 -38
-16 -45 -30 -162 -376 -42 -124 -89 -261 -105 -305 -15 -44 -48 -136 -72 -204
-23 -69 -44 -116 -46 -105 -6 43 -71 901 -72 941 0 26 -6 36 -30 48 -34 18
-106 19 -135 3z"/>
<path d="M1035 4087 c-22 -5 -45 -15 -51 -21 -6 -6 -22 -21 -35 -33 -54 -49
-85 -101 -119 -197 -54 -152 -78 -351 -60 -505 13 -114 29 -155 81 -203 37
-34 46 -38 95 -38 30 0 64 6 77 13 45 25 109 80 119 103 17 38 24 29 23 -33
l0 -58 65 -3 c56 -2 67 0 77 17 7 11 26 127 43 258 17 131 33 244 35 252 10
28 54 412 48 426 -4 11 -22 15 -65 15 -68 0 -87 -14 -88 -62 0 -16 -2 -28 -5
-28 -2 0 -23 20 -45 44 -29 31 -53 47 -85 55 -51 13 -56 13 -110 -2z m125
-234 c16 -9 37 -31 46 -49 16 -30 17 -40 2 -141 -18 -134 -67 -254 -127 -313
-51 -50 -81 -52 -113 -7 -21 29 -23 43 -22 133 1 138 48 307 101 361 36 37 69
42 113 16z"/>
<path d="M1905 4088 c-16 -6 -32 -14 -35 -17 -3 -4 -19 -17 -37 -29 -17 -12
-41 -38 -53 -57 -29 -46 -42 -44 -34 5 4 21 4 51 0 65 -6 23 -11 25 -65 25
-55 0 -59 -1 -74 -32 -10 -20 -25 -106 -37 -218 -12 -102 -30 -239 -40 -305
-32 -198 -52 -368 -45 -392 5 -21 10 -23 79 -23 71 0 74 1 84 28 12 33 27 127
47 287 22 171 32 217 69 298 38 82 103 150 139 145 29 -4 47 -43 47 -102 0
-60 -44 -418 -66 -538 -21 -113 -18 -118 82 -118 l73 0 10 38 c6 20 19 105 31
187 12 83 28 197 36 255 20 136 23 321 6 380 -30 103 -121 152 -217 118z"/>
<path d="M3181 4088 c-78 -17 -172 -94 -206 -168 -9 -19 -26 -53 -37 -75 -24
-47 -63 -229 -72 -337 -11 -133 26 -287 84 -344 44 -44 58 -54 74 -54 8 0 18
-4 21 -10 8 -12 159 -13 183 -1 9 5 34 17 55 27 91 44 173 175 214 341 22 91
27 131 27 253 1 136 -1 149 -27 217 -19 47 -39 80 -59 95 -16 13 -35 28 -41
33 -15 13 -110 35 -145 34 -15 -1 -47 -6 -71 -11z m121 -227 c33 -29 33 -31
36 -131 5 -124 -9 -207 -49 -301 -39 -91 -77 -129 -129 -129 -83 0 -117 70
-107 219 9 117 24 184 58 254 54 113 126 146 191 88z"/>
<path d="M2260 4055 c-13 -25 -2 -149 70 -765 18 -152 18 -168 4 -205 -9 -22
-19 -42 -23 -45 -4 -3 -20 -32 -36 -65 -15 -33 -33 -67 -39 -75 -26 -32 -48
-99 -42 -124 6 -25 9 -26 79 -26 61 0 76 4 100 24 15 13 27 26 27 30 0 6 20
48 170 361 79 165 177 420 205 531 8 34 21 76 29 95 23 56 58 238 52 264 -6
24 -10 25 -77 25 -46 0 -75 -5 -84 -14 -8 -7 -28 -74 -45 -147 -18 -74 -45
-174 -61 -222 -16 -49 -29 -94 -29 -100 0 -7 -16 -45 -34 -86 l-34 -74 -6 44
c-11 91 -38 338 -47 444 -14 156 -14 155 -97 155 -63 0 -70 -2 -82 -25z"/>
<path d="M4005 2350 c-69 -9 -80 -12 -155 -48 -106 -51 -185 -134 -245 -257
-56 -115 -75 -211 -75 -374 0 -157 22 -252 79 -349 46 -77 84 -119 196 -217
135 -118 168 -161 185 -246 11 -57 2 -156 -20 -215 -14 -36 -79 -114 -96 -114
-8 0 -14 -3 -14 -8 0 -28 -208 -48 -234 -22 -5 5 -16 10 -23 10 -17 0 -109 60
-144 93 -33 32 -67 49 -80 41 -21 -13 -38 -72 -50 -175 -15 -134 -9 -166 41
-213 21 -20 44 -36 50 -36 5 0 10 -4 10 -9 0 -5 14 -12 30 -16 17 -4 30 -11
30 -16 0 -5 10 -9 23 -9 13 0 27 -4 32 -9 14 -11 119 -31 170 -31 101 0 260
54 335 115 117 94 191 214 232 374 51 204 48 332 -13 510 -32 93 -111 193
-230 291 -51 42 -127 116 -153 149 -45 59 -62 142 -46 232 27 151 132 233 266
208 58 -11 104 -33 168 -81 28 -21 59 -38 69 -38 26 0 45 53 58 164 15 125 8
155 -41 200 -84 76 -218 112 -355 96z"/>
<path d="M885 2339 c-22 -5 -51 -14 -65 -20 -56 -25 -95 -44 -100 -49 -3 -4
-32 -25 -65 -48 -206 -143 -390 -544 -446 -972 -18 -132 -18 -493 0 -600 23
-141 98 -308 170 -378 109 -106 254 -151 420 -129 42 5 85 13 96 17 40 16 101
42 123 53 32 15 100 75 112 98 11 19 50 256 50 299 0 58 -38 64 -95 14 -53
-47 -113 -84 -145 -90 -17 -4 -33 -11 -36 -15 -3 -5 -43 -9 -89 -9 -70 0 -91
4 -132 25 -61 33 -106 92 -140 186 -26 70 -27 83 -27 264 0 169 3 205 27 320
33 158 47 208 84 305 42 110 107 214 173 279 59 59 79 70 162 90 94 22 211
-26 291 -119 48 -56 72 -54 91 10 26 87 40 243 26 287 -24 73 -125 148 -243
179 -58 15 -180 17 -242 3z"/>
<path d="M1674 2292 c-48 -40 -58 -87 -109 -480 -19 -145 -36 -271 -39 -280
-3 -9 -19 -127 -36 -262 -17 -135 -33 -252 -35 -260 -3 -8 -18 -118 -34 -245
-17 -126 -39 -291 -50 -365 -25 -164 -26 -203 -5 -221 23 -19 192 -19 227 0
33 18 32 13 57 210 12 91 23 167 25 171 2 3 15 103 30 221 14 118 30 237 35
264 6 28 23 154 40 280 17 127 36 271 44 320 8 50 20 141 27 202 7 62 14 112
15 110 8 -8 27 -175 55 -482 16 -181 32 -339 35 -350 2 -11 18 -166 34 -345
17 -179 37 -381 45 -450 20 -164 20 -164 156 -163 56 0 104 5 108 10 3 5 13
12 22 16 10 3 22 23 29 44 7 21 22 63 35 93 44 108 115 295 115 304 0 5 9 28
19 50 11 23 34 78 50 124 45 120 85 223 131 342 23 58 54 141 70 185 16 44 47
127 70 185 23 58 57 146 75 195 19 50 47 126 64 170 16 44 30 71 30 60 0 -11
-13 -117 -29 -235 -16 -118 -45 -336 -64 -485 -20 -148 -40 -292 -45 -320 -6
-27 -20 -129 -31 -225 -12 -96 -30 -229 -41 -295 -22 -140 -24 -189 -6 -203
20 -16 104 -24 173 -16 83 8 89 17 108 159 14 110 40 294 77 560 11 77 33 243
49 368 16 126 32 236 34 245 3 10 19 123 36 252 16 129 37 278 45 330 18 108
13 167 -16 204 l-20 26 -172 0 -172 0 -42 -38 c-43 -38 -78 -100 -114 -199
-11 -32 -33 -89 -49 -128 -16 -38 -76 -191 -135 -340 -58 -148 -115 -292 -126
-320 -12 -27 -34 -84 -49 -127 -16 -42 -35 -89 -43 -105 -8 -15 -25 -59 -38
-98 -13 -38 -26 -72 -30 -75 -3 -3 -12 -22 -19 -43 -6 -21 -14 -36 -17 -33 -7
6 -23 145 -68 566 -19 184 -37 341 -40 348 -3 8 -14 107 -25 220 -24 243 -26
256 -53 304 -37 63 -55 68 -234 68 -136 -1 -161 -3 -179 -18z"/>
</g>
</svg>
