<?xml version="1.0" standalone="no"?>
<!DOCTYPE svg PUBLIC "-//W3C//DTD SVG 20010904//EN"
 "http://www.w3.org/TR/2001/REC-SVG-20010904/DTD/svg10.dtd">
<svg version="1.0" xmlns="http://www.w3.org/2000/svg"
 width="384.000000pt" height="384.000000pt" viewBox="0 0 384.000000 384.000000"
 preserveAspectRatio="xMidYMid meet">
<metadata>
Created by potrace 1.14, written by Peter Selinger 2001-2017
</metadata>
<g transform="translate(0.000000,384.000000) scale(0.100000,-0.100000)"
fill="#000000" stroke="none">
<path d="M3490 3743 c-39 -4 -54 -9 -120 -42 -53 -26 -82 -51 -131 -111 -185
-227 -224 -701 -74 -878 90 -107 271 -129 425 -54 68 33 68 34 105 307 33 239
35 273 15 285 -8 5 -74 10 -147 10 -155 0 -154 1 -157 -109 l-1 -66 74 -3 73
-3 -6 -42 c-3 -23 -8 -69 -12 -102 -10 -89 -17 -101 -70 -119 -44 -15 -52 -15
-96 0 -92 30 -128 104 -128 261 0 113 20 206 64 298 63 130 164 196 271 176
46 -9 115 -42 134 -65 38 -46 71 5 71 110 0 42 -5 55 -27 76 -54 51 -164 81
-263 71z"/>
<path d="M118 3732 c-51 -6 -52 -14 -29 -244 11 -117 28 -294 36 -393 23 -262
43 -444 50 -455 3 -6 46 -10 94 -10 l87 0 18 38 c10 20 31 73 47 117 15 44 71
197 124 340 131 353 205 564 205 580 0 32 -125 38 -150 7 -15 -18 -52 -121
-186 -512 -83 -244 -107 -310 -113 -305 -2 3 -10 80 -17 172 -7 93 -17 218
-23 278 -5 61 -13 165 -17 232 -3 68 -12 129 -18 137 -12 15 -65 24 -108 18z"/>
<path d="M887 3458 c-138 -29 -238 -261 -239 -552 0 -126 12 -184 50 -237 59
-82 157 -76 246 16 l42 45 0 -48 -1 -47 58 -3 c52 -3 58 -1 66 20 5 13 20 113
35 223 15 110 37 278 50 374 13 96 22 180 19 188 -3 8 -23 13 -59 13 -57 0
-74 -14 -74 -61 0 -19 -5 -16 -37 20 -43 46 -94 62 -156 49z m107 -212 c40
-37 43 -56 26 -166 -16 -95 -58 -195 -102 -241 -45 -46 -69 -49 -98 -12 -48
61 -5 341 65 417 41 45 64 45 109 2z"/>
<path d="M1617 3457 c-24 -6 -55 -27 -86 -58 -27 -27 -50 -49 -52 -49 -2 0 -4
21 -4 47 l0 48 -52 3 c-66 4 -67 1 -88 -159 -8 -68 -32 -238 -51 -378 -19
-139 -33 -259 -30 -267 4 -10 24 -14 70 -14 53 0 66 3 70 18 6 21 30 169 50
313 18 127 54 222 102 272 61 62 104 44 104 -42 0 -43 -45 -401 -61 -485 -6
-34 -6 -53 2 -62 15 -18 125 -19 135 -2 9 14 43 236 70 457 25 196 6 304 -59
345 -32 20 -76 25 -120 13z"/>
<path d="M2709 3460 c-154 -26 -251 -185 -280 -461 -24 -231 43 -366 192 -386
207 -28 360 202 361 542 1 90 -3 120 -21 167 -28 73 -80 125 -135 133 -23 4
-48 8 -56 9 -8 2 -36 0 -61 -4z m78 -185 c74 -52 39 -361 -53 -452 -54 -55
-123 -38 -144 35 -33 120 21 352 96 411 31 25 71 27 101 6z"/>
<path d="M1910 3430 c-10 -19 11 -273 40 -475 6 -38 17 -125 25 -193 l14 -123
-71 -138 c-46 -87 -69 -143 -65 -154 9 -25 127 -24 154 1 21 18 177 337 235
482 95 232 186 548 173 597 -5 21 -11 23 -70 23 -77 0 -74 4 -105 -135 -38
-170 -112 -395 -129 -395 -4 0 -13 55 -19 123 -24 243 -41 388 -47 397 -3 6
-33 10 -65 10 -49 0 -61 -3 -70 -20z"/>
<path d="M750 1977 c-79 -19 -123 -40 -188 -91 -162 -125 -263 -304 -337 -596
-48 -192 -60 -289 -59 -505 0 -226 14 -304 74 -430 68 -142 159 -211 307 -234
156 -24 375 58 413 155 14 36 42 243 35 264 -9 29 -24 25 -85 -21 -115 -88
-226 -112 -322 -70 -54 23 -80 52 -112 121 -55 119 -59 320 -12 553 44 214
112 372 201 463 69 71 105 88 190 88 59 0 78 -4 118 -28 26 -15 63 -46 81 -68
41 -48 64 -47 82 3 20 60 34 202 23 241 -30 112 -245 193 -409 155z"/>
<path d="M3335 1977 c-156 -41 -282 -179 -330 -362 -22 -86 -30 -227 -16 -315
23 -151 73 -224 282 -415 79 -72 100 -109 107 -190 17 -220 -169 -350 -358
-251 -29 15 -60 34 -68 42 -7 8 -29 26 -48 40 -28 22 -37 24 -49 14 -24 -20
-37 -88 -39 -194 l-1 -98 39 -34 c173 -150 450 -132 621 41 197 200 233 595
75 810 -22 29 -82 90 -134 136 -154 134 -189 200 -167 320 21 119 83 179 186
179 68 0 129 -24 182 -70 62 -55 85 -35 103 88 17 120 14 138 -27 181 -21 21
-63 49 -93 61 -67 28 -193 35 -265 17z"/>
<path d="M1432 1948 c-52 -26 -63 -69 -112 -433 -16 -121 -43 -319 -59 -440
-130 -931 -126 -904 -113 -917 30 -30 194 -26 217 6 7 9 18 60 24 114 7 53 16
123 22 154 5 31 21 141 34 245 13 103 33 251 44 328 29 201 51 361 71 510 9
72 20 123 23 115 3 -8 13 -87 22 -175 8 -88 24 -252 35 -365 12 -113 32 -320
45 -460 42 -442 45 -459 71 -477 31 -20 165 -19 197 2 23 14 31 33 124 280 19
50 56 147 84 216 27 69 58 150 68 180 19 53 107 284 177 464 20 50 46 119 59
155 36 100 66 174 72 180 9 7 -3 -96 -42 -380 -20 -140 -48 -349 -64 -465 -16
-116 -42 -301 -57 -412 -21 -153 -25 -206 -17 -214 31 -31 195 -27 218 4 6 9
26 121 44 249 75 546 93 679 107 778 8 58 26 191 40 297 13 105 29 215 34 244
17 87 13 173 -9 200 -18 22 -28 24 -121 27 -154 6 -187 -2 -235 -52 -22 -24
-50 -67 -62 -97 -27 -66 -164 -414 -268 -679 -136 -349 -178 -450 -183 -445
-6 5 -22 133 -52 420 -11 105 -29 264 -40 355 -11 91 -24 215 -30 275 -12 118
-33 180 -72 204 -30 20 -262 26 -296 9z"/>
</g>
</svg>
